<svg width="435" height="165" viewBox="0 0 435 165" fill="none" xmlns="http://www.w3.org/2000/svg">   
    <path d="M417.061 95.8203C420.007 95.8203 422.243 95.6625 423.768 95.3469V84.7735C423.242 84.6157 422.479 84.4579 421.48 84.3001C420.48 84.1423 419.376 84.0634 418.166 84.0634C417.114 84.0634 416.035 84.1423 414.931 84.3001C413.879 84.4579 412.905 84.7472 412.011 85.1681C411.169 85.5889 410.486 86.1938 409.96 86.9829C409.434 87.7194 409.17 88.6662 409.17 89.8235C409.17 92.0855 409.881 93.6636 411.301 94.5578C412.721 95.3995 414.641 95.8203 417.061 95.8203ZM416.272 60.2339C419.428 60.2339 422.085 60.6284 424.241 61.4175C426.398 62.2065 428.108 63.3112 429.37 64.7315C430.685 66.1518 431.606 67.8877 432.132 69.9393C432.711 71.9382 433 74.1476 433 76.5674V101.58C431.527 101.896 429.291 102.264 426.293 102.685C423.347 103.159 420.007 103.395 416.272 103.395C413.8 103.395 411.538 103.159 409.486 102.685C407.435 102.212 405.672 101.449 404.199 100.397C402.779 99.3448 401.648 97.9771 400.806 96.2938C400.017 94.6104 399.623 92.5326 399.623 90.0602C399.623 87.6931 400.07 85.6941 400.964 84.0634C401.911 82.4327 403.174 81.1176 404.752 80.1181C406.33 79.066 408.145 78.3296 410.196 77.9088C412.3 77.4353 414.483 77.1986 416.745 77.1986C417.798 77.1986 418.902 77.2775 420.059 77.4353C421.217 77.5405 422.453 77.7509 423.768 78.0666V76.4884C423.768 75.3838 423.637 74.3317 423.374 73.3322C423.11 72.3328 422.637 71.4648 421.953 70.7283C421.322 69.9393 420.454 69.3343 419.349 68.9135C418.297 68.4927 416.956 68.2823 415.325 68.2823C413.116 68.2823 411.091 68.4401 409.249 68.7557C407.408 69.0713 405.909 69.4395 404.752 69.8604L403.568 62.1276C404.778 61.7068 406.54 61.286 408.855 60.8651C411.169 60.4443 413.642 60.2339 416.272 60.2339Z" fill="#416830"/>
    <path d="M365.777 80.8283C365.777 84.8788 366.645 87.8509 368.381 89.7446C370.17 91.5858 372.458 92.5063 375.246 92.5063C376.772 92.5063 378.192 92.2959 379.507 91.8751C380.875 91.4542 381.979 90.9545 382.821 90.3759V68.9924C382.137 68.8346 381.295 68.7031 380.296 68.5979C379.296 68.4401 378.034 68.3612 376.508 68.3612C373.037 68.3612 370.38 69.5185 368.539 71.833C366.698 74.095 365.777 77.0934 365.777 80.8283ZM392.369 98.3453C392.369 104.921 390.685 109.734 387.319 112.785C384.005 115.836 378.902 117.362 372.011 117.362C369.486 117.362 367.014 117.151 364.594 116.73C362.227 116.31 360.07 115.757 358.123 115.073L359.859 106.946C361.49 107.63 363.331 108.182 365.383 108.603C367.487 109.024 369.749 109.234 372.169 109.234C376.009 109.234 378.744 108.445 380.375 106.867C382.006 105.289 382.821 102.948 382.821 99.8445V98.2664C381.874 98.7399 380.612 99.2133 379.033 99.6867C377.508 100.16 375.746 100.397 373.747 100.397C371.117 100.397 368.697 99.9761 366.487 99.1344C364.331 98.2927 362.463 97.0565 360.885 95.4258C359.36 93.7951 358.15 91.7699 357.256 89.3501C356.414 86.8777 355.993 84.0371 355.993 80.8283C355.993 77.8299 356.44 75.0682 357.334 72.5432C358.281 70.0182 359.623 67.8615 361.359 66.0729C363.147 64.2844 365.304 62.8904 367.829 61.8909C370.354 60.8915 373.221 60.3917 376.43 60.3917C379.533 60.3917 382.479 60.6284 385.267 61.1019C388.055 61.5753 390.422 62.075 392.369 62.6011V98.3453Z" fill="#416830"/>
    <path d="M314.097 62.6011C315.938 62.075 318.332 61.5753 321.278 61.1019C324.223 60.6284 327.485 60.3917 331.062 60.3917C334.429 60.3917 337.243 60.8652 339.505 61.812C341.767 62.7063 343.555 63.9951 344.87 65.6784C346.238 67.3091 347.185 69.3081 347.711 71.6752C348.29 73.9898 348.579 76.5411 348.579 79.3291V102.527H339.031V80.8283C339.031 78.6189 338.874 76.7515 338.558 75.226C338.295 73.6479 337.822 72.3854 337.138 71.4385C336.506 70.439 335.612 69.7289 334.455 69.3081C333.35 68.8346 331.982 68.5979 330.352 68.5979C329.142 68.5979 327.879 68.6768 326.564 68.8346C325.249 68.9924 324.276 69.1239 323.645 69.2292V102.527H314.097V62.6011Z" fill="#416830"/>
    <path d="M303.889 102.527H294.342V61.2598H303.889V102.527ZM304.915 49.1872C304.915 50.9757 304.337 52.396 303.179 53.4481C302.022 54.5002 300.654 55.0262 299.076 55.0262C297.445 55.0262 296.051 54.5002 294.894 53.4481C293.737 52.396 293.158 50.9757 293.158 49.1872C293.158 47.3461 293.737 45.8995 294.894 44.8474C296.051 43.7953 297.445 43.2693 299.076 43.2693C300.654 43.2693 302.022 43.7953 303.179 44.8474C304.337 45.8995 304.915 47.3461 304.915 49.1872Z" fill="#416830"/>
    <path d="M262.782 50.3707L272.33 48.7926V61.2597H287.006V69.2292H272.33V86.0361C272.33 89.3501 272.856 91.7173 273.908 93.1376C274.96 94.5579 276.748 95.268 279.273 95.268C281.009 95.268 282.535 95.0839 283.85 94.7157C285.218 94.3475 286.296 94.0055 287.085 93.6899L288.663 101.265C287.558 101.738 286.112 102.212 284.323 102.685C282.535 103.211 280.431 103.474 278.011 103.474C275.065 103.474 272.593 103.08 270.594 102.291C268.647 101.502 267.096 100.371 265.938 98.8977C264.781 97.3722 263.966 95.5573 263.492 93.4532C263.019 91.2964 262.782 88.8504 262.782 86.115V50.3707Z" fill="#416830"/>
    <path d="M237.597 95.8203C240.543 95.8203 242.778 95.6625 244.304 95.3469V84.7735C243.778 84.6157 243.015 84.4579 242.016 84.3001C241.016 84.1423 239.912 84.0634 238.702 84.0634C237.65 84.0634 236.571 84.1423 235.467 84.3001C234.414 84.4579 233.441 84.7472 232.547 85.1681C231.705 85.5889 231.021 86.1938 230.495 86.9829C229.969 87.7194 229.706 88.6662 229.706 89.8235C229.706 92.0855 230.417 93.6636 231.837 94.5578C233.257 95.3995 235.177 95.8203 237.597 95.8203ZM236.808 60.2339C239.964 60.2339 242.621 60.6284 244.777 61.4175C246.934 62.2065 248.644 63.3112 249.906 64.7315C251.221 66.1518 252.142 67.8877 252.668 69.9393C253.247 71.9382 253.536 74.1476 253.536 76.5674V101.58C252.063 101.896 249.827 102.264 246.829 102.685C243.883 103.159 240.543 103.395 236.808 103.395C234.336 103.395 232.074 103.159 230.022 102.685C227.97 102.212 226.208 101.449 224.735 100.397C223.315 99.3448 222.184 97.9771 221.342 96.2938C220.553 94.6104 220.159 92.5326 220.159 90.0602C220.159 87.6931 220.606 85.6941 221.5 84.0634C222.447 82.4327 223.71 81.1176 225.288 80.1181C226.866 79.066 228.681 78.3296 230.732 77.9088C232.836 77.4353 235.019 77.1986 237.281 77.1986C238.333 77.1986 239.438 77.2775 240.595 77.4353C241.753 77.5405 242.989 77.7509 244.304 78.0666V76.4884C244.304 75.3838 244.172 74.3317 243.909 73.3322C243.646 72.3328 243.173 71.4648 242.489 70.7283C241.858 69.9393 240.99 69.3343 239.885 68.9135C238.833 68.4927 237.492 68.2823 235.861 68.2823C233.652 68.2823 231.626 68.4401 229.785 68.7557C227.944 69.0713 226.445 69.4395 225.288 69.8604L224.104 62.1276C225.314 61.7068 227.076 61.286 229.391 60.8651C231.705 60.4443 234.178 60.2339 236.808 60.2339Z" fill="#416830"/>
    <path d="M216.741 69.8604C215.952 69.5974 214.847 69.3344 213.427 69.0713C212.059 68.7557 210.454 68.5979 208.613 68.5979C207.561 68.5979 206.43 68.7031 205.22 68.9135C204.063 69.124 203.248 69.3081 202.774 69.4659V102.527H193.227V63.2323C195.068 62.5485 197.356 61.9172 200.092 61.3386C202.88 60.7073 205.957 60.3917 209.323 60.3917C209.955 60.3917 210.691 60.4443 211.533 60.5495C212.374 60.6021 213.216 60.7073 214.058 60.8652C214.899 60.9704 215.715 61.1282 216.504 61.3386C217.293 61.4964 217.924 61.6542 218.398 61.812L216.741 69.8604Z" fill="#416830"/>
    <path d="M167.568 95.8203C170.514 95.8203 172.75 95.6625 174.275 95.3469V84.7735C173.749 84.6157 172.986 84.4579 171.987 84.3001C170.987 84.1423 169.883 84.0634 168.673 84.0634C167.621 84.0634 166.542 84.1423 165.438 84.3001C164.386 84.4579 163.413 84.7472 162.518 85.1681C161.677 85.5889 160.993 86.1938 160.467 86.9829C159.941 87.7194 159.678 88.6662 159.678 89.8235C159.678 92.0855 160.388 93.6636 161.808 94.5578C163.228 95.3995 165.148 95.8203 167.568 95.8203ZM166.779 60.2339C169.935 60.2339 172.592 60.6284 174.749 61.4175C176.905 62.2065 178.615 63.3112 179.877 64.7315C181.193 66.1518 182.113 67.8877 182.639 69.9393C183.218 71.9382 183.507 74.1476 183.507 76.5674V101.58C182.034 101.896 179.799 102.264 176.8 102.685C173.854 103.159 170.514 103.395 166.779 103.395C164.307 103.395 162.045 103.159 159.993 102.685C157.942 102.212 156.179 101.449 154.707 100.397C153.286 99.3448 152.155 97.9771 151.314 96.2938C150.525 94.6104 150.13 92.5326 150.13 90.0602C150.13 87.6931 150.577 85.6941 151.471 84.0634C152.418 82.4327 153.681 81.1176 155.259 80.1181C156.837 79.066 158.652 78.3296 160.703 77.9088C162.808 77.4353 164.991 77.1986 167.253 77.1986C168.305 77.1986 169.409 77.2775 170.567 77.4353C171.724 77.5405 172.96 77.7509 174.275 78.0666V76.4884C174.275 75.3838 174.144 74.3317 173.881 73.3322C173.618 72.3328 173.144 71.4648 172.46 70.7283C171.829 69.9393 170.961 69.3343 169.856 68.9135C168.804 68.4927 167.463 68.2823 165.832 68.2823C163.623 68.2823 161.598 68.4401 159.757 68.7557C157.915 69.0713 156.416 69.4395 155.259 69.8604L154.075 62.1276C155.285 61.7068 157.047 61.286 159.362 60.8651C161.677 60.4443 164.149 60.2339 166.779 60.2339Z" fill="#416830"/>
    <path d="M305.416 49.3449C305.416 52.7441 302.661 55.4996 299.262 55.4996C295.863 55.4996 293.107 52.7441 293.107 49.3449C293.107 45.9458 295.863 43.1903 299.262 43.1903C302.661 43.1903 305.416 45.9458 305.416 49.3449Z" fill="#F32E3F"/>
    <path d="M80.8738 124.352C81.2924 123.934 81.3098 119.046 81.2662 117.046L70.2798 122.525C69.2335 122.943 69.9311 125.83 70.803 126.83C67.9779 125.265 65.8766 126.439 65.179 127.222C62.2493 125.969 61.2553 128.526 61.1245 129.961C62.694 127.039 64.4815 127.961 65.179 128.787C65.3098 128.961 65.7806 129.361 66.6177 129.57C67.4548 129.779 67.8384 129.135 67.9256 128.787C68.7627 129.622 69.6695 129.135 70.0182 128.787C70.4368 129.622 72.5469 129.918 73.5496 129.961C73.8635 131.214 74.4651 132.223 74.7267 132.57C71.9016 131.214 69.6259 132.353 68.8411 133.092C65.9114 131.527 64.743 134.266 64.5251 135.832C66.7485 132.44 68.5796 134.658 69.4951 135.44C70.2275 136.067 71.2826 135.44 71.7185 135.049C72.9741 135.78 73.9856 135.354 74.3343 135.049C76.5316 136.197 81.0918 135.788 83.0973 135.44C85.2696 135.668 85.7431 135.352 85.7131 135.049C86.7594 135.049 87.4569 134.788 87.6749 134.658C88.9305 135.18 89.5932 134.875 89.7676 134.658C91.8602 135.493 93.2553 135.006 93.6913 134.658C94.3191 135.18 95.6967 134.875 96.3071 134.658C96.3071 135.049 96.6471 135.832 98.0073 135.832C99.8907 135.623 99.5768 134.266 99.1845 133.614C103.056 133.092 105.07 135.397 105.593 136.615C106.116 132.336 100.492 131.875 97.615 132.179C95.627 131.24 94.1708 131.788 93.6913 132.179C91.7294 130.483 86.2165 131.565 86.1054 131.135C85.9944 130.706 85.5823 129.439 85.1899 128.787C85.9223 129.205 87.9365 128.961 88.852 128.787C89.3752 129.205 90.2035 128.961 90.5523 128.787C90.5523 129.179 90.9447 129.961 92.5142 129.961C94.0836 129.961 93.9529 128.483 93.6913 127.744C96.3071 127.43 98.7049 129.092 99.5768 129.961C99.5768 126.517 94.3452 126.004 91.7294 126.178C90.5785 125.552 89.3316 125.917 88.852 126.178H88.1981C87.1518 125.552 83.2281 125.395 81.397 125.395L80.8738 124.352Z" fill="#020101"/>
    <path d="M110.046 9.16365L114.881 7.20947L140.496 16.4592L143.502 16.9803V18.674L141.411 35.8707L129.911 35.4799L126.774 37.8249L111.876 27.9237L110.046 9.16365Z" fill="black"/>
    <path d="M131.273 9.74681C138.814 9.43461 142.357 15.0801 143.186 17.9419L136.902 24.706L132.844 25.8767C130.967 28.8686 127.11 34.7482 126.691 34.3319C126.167 33.8116 122.501 29.7791 119.098 26.9174C115.694 24.0556 119.098 20.0231 120.145 17.4215C120.983 15.3403 119.534 14.2996 118.705 14.0395C119.752 12.7386 123.732 10.059 131.273 9.74681Z" fill="#891121"/>
    <path d="M79.8047 41.1936C86.6542 31.4057 100.744 11.5063 109.977 8.51155L114.269 7.20947C112.145 8.59835 109.223 11.923 114.529 14.1105C121.162 16.8448 117.911 18.5375 116.35 20.6208C114.789 22.7041 114.103 24.7395 116.87 26.7406C119.211 28.4333 123.633 31.8187 125.584 33.2509C125.757 34.4228 126.182 36.8186 127.535 37.027C128.055 39.1537 127.795 43.8759 122.593 45.7508C125.671 52.131 128.289 69.6829 114.139 88.8495C107.203 96.7921 90.8593 113.745 80.9752 118.016C71.091 122.287 65.9321 125.004 64.5882 125.828C58.6344 127.564 44.2904 133.198 34.5455 141.844C29.3962 146.28 19.3732 155.109 17.33 157.619C16.939 158.402 16.7129 158.763 16.988 158.12C17.0375 158.004 17.1542 157.835 17.33 157.619C18.0479 156.183 19.3215 153.325 19.0689 152.651C18.6788 151.609 16.3378 158.12 6.19347 162.417C8.01424 161.071 11.7858 157.807 12.3061 155.516C9.4882 157.903 2.68198 163.146 -2 165.021L36.4963 121.532C34.0686 122.139 27.9907 123.354 23.1006 123.354C29.0832 118.58 42.9731 104.136 50.6723 84.5526C60.2964 60.0737 76.2932 41.1936 79.8047 41.1936Z" fill="#416830"/>
    <path d="M101.859 34.8529C88.0156 33.3976 78.0493 40.9166 74.7965 44.858L35.2435 121.78C75.7073 114.374 85.3353 100.731 98.4763 87.6071C111.617 74.4835 119.164 36.672 101.859 34.8529Z" fill="black"/>
    <path d="M116.116 21.3743C112.212 25.2679 122.104 30.834 125.688 33.406C124.246 29.875 115.723 28.1749 120.706 20.3281C120.706 20.3281 123.853 15.2277 119.657 14.7045C122.017 12.3505 124.552 11.8274 129.098 11.1735C136.226 10.148 141.555 15.3585 143.522 17.974C148.111 11.1735 125.688 1.23427 115.723 6.46544C109.56 9.70051 111.833 13.0916 116.116 14.7045C119.525 16.1431 119.525 17.974 116.116 21.3743Z" fill="#F32E3F"/>
    <path d="M130.181 37.8248C127.003 37.8248 125.237 34.0604 125.546 32.5632C127.532 31.1516 130.048 27.815 132.829 26.1467C136.007 29.355 135.212 29.355 136.537 33.0766C137.172 33.6925 138.832 35.3865 139.715 35.6432C138.969 36.9265 134.153 37.8248 130.181 37.8248Z" fill="#C59349"/>
    <path d="M125.264 10.8633C125.383 12.4163 122.743 13.8997 121.408 14.4472C122.476 14.4472 123.435 15.7415 123.781 16.3886V15.6419L126.006 18.3299C127.835 19.425 131.997 20.7491 134.014 17.2846C136.031 13.82 132.877 11.1619 131.048 10.2659C129.15 9.07126 126.401 10.1664 125.264 10.8633Z" fill="white"/>
    <path d="M143.304 18.2561C142.918 18.7763 138.926 21.2474 138.926 21.2474C137.553 22.5913 134.651 25.2791 134.033 25.2791C135.192 26.4496 137.87 29.5969 139.313 32.8223C140.755 36.0477 137.424 41.7095 135.578 44.1372C140.626 42.1603 143.862 37.591 144.849 35.5535C149.279 27.0218 145.794 20.4237 143.304 18.2561Z" fill="#C59349"/>
    <path d="M131.64 14.7844C131.64 16.2514 130.45 17.4406 128.983 17.4406C127.516 17.4406 126.327 16.2514 126.327 14.7844C126.327 13.3174 127.516 12.1282 128.983 12.1282C130.45 12.1282 131.64 13.3174 131.64 14.7844Z" fill="#C59349" stroke="black"/>
    <ellipse cx="129.169" cy="14.5988" rx="2.22792" ry="2.22792" fill="#83D2F3"/>
    <ellipse cx="129.355" cy="14.4131" rx="1.67094" ry="1.67094" fill="black"/>
    <ellipse cx="129.169" cy="15.3414" rx="0.742645" ry="0.742641" fill="white"/>
    <ellipse cx="128.798" cy="12.7422" rx="0.371323" ry="0.37132" fill="white"/>
    <ellipse cx="129.912" cy="12.7422" rx="0.371323" ry="0.37132" fill="white"/>
    <path d="M34.9437 116.333C33.0716 117.76 24.8948 118.665 21.0404 118.94C28.3362 112.765 32.6036 107.139 44.9927 85.8697C50.3967 76.5922 55.3974 64.5073 60.4102 56.2303C64.591 49.327 69.0607 45.7408 71.1474 42.3711C86.675 28.4296 98.9999 31.2563 103.221 34.4123C114.234 50.5494 99.8258 76.9047 91.2452 88.0653C74.8366 106.617 46.874 114.64 34.9437 116.333Z" fill="#5C8443"/>
</svg>
