<svg width="190" height="190" viewBox="0 0 190 190" fill="none" xmlns="http://www.w3.org/2000/svg">
<rect width="190" height="190" rx="20" fill="url(#paint0_linear_7_83)"/>
<mask id="mask0_7_83" style="mask-type:alpha" maskUnits="userSpaceOnUse" x="0" y="0" width="190" height="190">
<rect width="190" height="190" rx="20" fill="black"/>
</mask>
<g mask="url(#mask0_7_83)">
<path d="M79.8776 32.7199L91.7586 27.9183L154.696 50.6457L162.082 51.9262V56.0875L156.944 98.3413L128.686 97.381L120.98 103.143L84.3731 78.8149L79.8776 32.7199Z" fill="black"/>
<path d="M132.034 34.153C150.562 33.3859 159.269 47.2573 161.306 54.2889L145.866 70.909L135.894 73.7855C131.283 81.1367 121.805 95.5834 120.775 94.5607C119.488 93.2822 110.482 83.3741 102.118 76.3425C93.7546 69.3109 102.118 59.4028 104.692 53.0104C106.75 47.8965 103.19 45.3396 101.153 44.7004C103.726 41.5042 113.505 34.9201 132.034 34.153Z" fill="#891121"/>
<path d="M5.57208 111.42C22.402 87.3704 57.0206 38.476 79.709 31.1176L90.2544 27.9183C85.035 31.3309 77.8556 39.4998 90.8935 44.8746C107.191 51.5932 99.202 55.7522 95.3673 60.8711C91.5326 65.99 89.8456 70.991 96.6455 75.9078C102.398 80.0669 113.262 88.3851 118.056 91.9043C118.482 94.7837 119.526 100.67 122.849 101.182C124.127 106.408 123.488 118.011 110.706 122.618C118.269 138.294 124.703 181.421 89.9348 228.514C72.8918 248.03 32.7343 289.685 8.44807 300.179C-15.8382 310.672 -28.5139 317.348 -31.816 319.375C-46.4451 323.64 -81.6893 337.483 -105.633 358.726C-118.286 369.626 -142.913 391.321 -147.933 397.487C-148.894 399.41 -149.45 400.297 -148.773 398.717C-148.652 398.433 -148.365 398.018 -147.933 397.487C-146.169 393.957 -143.04 386.937 -143.661 385.28C-144.619 382.721 -150.371 398.717 -175.297 409.275C-170.823 405.969 -161.556 397.949 -160.277 392.319C-167.201 398.184 -183.925 411.066 -195.429 415.673L-100.84 308.817C-106.805 310.31 -121.739 313.296 -133.754 313.296C-119.055 301.565 -84.9262 266.074 -66.0085 217.957C-42.3613 157.81 -3.05594 111.42 5.57208 111.42Z" fill="#416830"/>
<path d="M59.7618 95.8406C25.747 92.2648 1.2589 110.74 -6.7333 120.424L-103.918 309.429C-4.49548 291.23 19.1614 257.708 51.4499 225.462C83.7384 193.216 102.28 100.31 59.7618 95.8406Z" fill="black"/>
<path d="M94.7922 62.7227C85.1998 72.2897 109.505 85.9661 118.312 92.2857C114.768 83.6096 93.8256 79.4322 106.069 60.1521C106.069 60.1521 113.801 47.62 103.491 46.3346C109.291 40.5506 115.52 39.2652 126.689 37.6585C144.205 35.1389 157.297 47.9413 162.13 54.368C173.407 37.6585 118.312 13.237 93.8256 26.0905C78.6827 34.0393 84.2673 42.3715 94.7922 46.3346C103.169 49.8693 103.169 54.368 94.7922 62.7227Z" fill="#F32E3F"/>
<path d="M129.35 103.143C121.542 103.143 117.204 93.8935 117.963 90.2148C122.843 86.7463 129.025 78.5481 135.857 74.449C143.666 82.3319 141.714 82.3319 144.967 91.4761C146.529 92.9896 150.607 97.1518 152.776 97.7825C150.943 100.936 139.111 103.143 129.35 103.143Z" fill="#C59349"/>
<path d="M117.27 36.8962C117.562 40.7122 111.075 44.357 107.796 45.7023C110.42 45.7023 112.776 48.8823 113.626 50.4723V48.6377L119.092 55.2423C123.587 57.9331 133.814 61.1865 138.77 52.6739C143.726 44.1613 135.976 37.63 131.482 35.4285C126.818 32.4931 120.064 35.1839 117.27 36.8962Z" fill="white"/>
<path d="M161.596 55.0612C160.647 56.3394 150.839 62.4109 150.839 62.4109C147.464 65.713 140.335 72.3172 138.816 72.3172C141.664 75.1932 148.244 82.9265 151.788 90.8515C155.331 98.7766 147.148 112.688 142.613 118.653C155.015 113.796 162.967 102.569 165.392 97.5622C176.276 76.5993 167.713 60.3871 161.596 55.0612Z" fill="#C59349"/>
<path d="M133.663 46.5306C133.663 50.5375 130.415 53.7857 126.408 53.7857C122.401 53.7857 119.153 50.5375 119.153 46.5306C119.153 42.5237 122.401 39.2755 126.408 39.2755C130.415 39.2755 133.663 42.5237 133.663 46.5306Z" fill="#C59349" stroke="black"/>
<ellipse cx="126.864" cy="46.0744" rx="5.47418" ry="5.47419" fill="#83D2F3"/>
<ellipse cx="127.32" cy="45.6182" rx="4.10565" ry="4.10564" fill="black"/>
<ellipse cx="126.864" cy="47.8992" rx="1.82474" ry="1.82473" fill="white"/>
<ellipse cx="125.952" cy="41.5126" rx="0.912369" ry="0.912365" fill="white"/>
<ellipse cx="128.689" cy="41.5126" rx="0.912369" ry="0.912365" fill="white"/>
<path d="M-104.655 296.043C-109.255 299.549 -129.346 301.775 -138.816 302.449C-120.89 287.277 -110.405 273.453 -79.9638 221.193C-66.6855 198.398 -54.3984 168.704 -42.0817 148.367C-31.8092 131.405 -20.8266 122.593 -15.6995 114.314C22.4531 80.0581 52.7363 87.0036 63.1087 94.7583C90.1674 134.408 54.7656 199.166 33.6824 226.588C-6.63492 272.172 -75.3413 291.885 -104.655 296.043Z" fill="#5C8443"/>
</g>
<defs>
<linearGradient id="paint0_linear_7_83" x1="95" y1="0" x2="95" y2="190" gradientUnits="userSpaceOnUse">
<stop stop-color="#E2E2E2" stop-opacity="0"/>
<stop offset="1" stop-color="#B0AEAE"/>
</linearGradient>
</defs>
</svg>
